# xmcd
#
# Track frame offsets:
#	150
#	15225
#	29044
#	45104
#	60292
#	78462
#	86842
#	102020
#	113701
#	136266
#	150966
#
# Disc length: 2257 seconds
#
# Revision: 0
# Processed by: cddbd v1.5.2PL0 Copyright (c) Steve Scherf et al.
# Submitted via: audiograbber 1.83.01
#
DISCID=7008cf0b
DTITLE=Chris Wolfe - Butt Seriously Folk
DYEAR=2020
DGENRE=Country
TTITLE0=On The Moon
TTITLE1=Cryin' Train
TTITLE2=When I Was A Kid
TTITLE3=Physical Exam
TTITLE4=It's A Good Thing You Don't Love Me Anymore
TTITLE5=As Seen On TV
TTITLE6=Summer Rain
TTITLE7=Windowless Van
TTITLE8=The Diner
TTITLE9=Oh Jee
TTITLE10=CDX-7105-11-Chris_Wolf- - Ukulele_Blues
EXTD=
EXTT0=
EXTT1=
EXTT2=
EXTT3=
EXTT4=
EXTT5=
EXTT6=
EXTT7=
EXTT8=
EXTT9=
EXTT10=
PLAYORDER=
